<?xml version="1.0" ?><!-- Uploaded to: SVG Repo, www.svgrepo.com, Generator: SVG Repo Mixer Tools -->
<svg fill="#000000" width="800px" height="800px" viewBox="0 0 24 24" id="Layer_2" version="1.1" xml:space="preserve" xmlns="http://www.w3.org/2000/svg" xmlns:xlink="http://www.w3.org/1999/xlink"><circle cx="5.5" cy="6.625" r="0.5"/><circle cx="18.5" cy="6.625" r="0.5"/><path d="M9.491,3H6.62C4.624,3,3,4.624,3,6.63c0,1.996,1.624,3.62,3.62,3.62h0.59c0.094,0,0.195-0.023,0.29-0.03v8.82  C7.5,20.121,8.379,21,9.46,21s1.96-0.879,1.96-1.96v-13V4.929C11.42,3.865,10.555,3,9.491,3z M6.62,9.25C5.175,9.25,4,8.074,4,6.62  C4,5.176,5.175,4,6.62,4h2.871c0.512,0,0.929,0.417,0.929,0.929V6.04c0,0.19-0.016,0.376-0.048,0.558  C10.153,7.866,9.196,8.89,7.896,9.18C7.666,9.225,7.43,9.25,7.21,9.25H6.62z M10.42,8.775V19.04c0,0.529-0.431,0.96-0.96,0.96  S8.5,19.569,8.5,19.04v-8.988c0.063-0.02,0.12-0.05,0.182-0.073C8.76,9.95,8.836,9.92,8.912,9.887  c0.138-0.061,0.27-0.13,0.399-0.204c0.062-0.036,0.126-0.068,0.186-0.106c0.173-0.111,0.338-0.233,0.491-0.367  c0.009-0.008,0.019-0.014,0.028-0.022C10.16,9.059,10.295,8.922,10.42,8.775z"/><path d="M17.38,3h-2.871c-1.063,0-1.929,0.865-1.929,1.929V6.04v13c0,1.081,0.879,1.96,1.96,1.96s1.96-0.879,1.96-1.96v-8.819  c0.096,0.006,0.195,0.029,0.29,0.029h0.59c1.996,0,3.62-1.624,3.62-3.63C21,4.624,19.376,3,17.38,3z M15.5,19.04  c0,0.529-0.431,0.96-0.96,0.96s-0.96-0.431-0.96-0.96V8.775c0.267,0.314,0.585,0.584,0.938,0.809  c0.047,0.03,0.097,0.055,0.145,0.083c0.143,0.084,0.291,0.16,0.446,0.227c0.065,0.028,0.131,0.054,0.198,0.079  c0.065,0.025,0.127,0.056,0.193,0.077V19.04z M17.38,9.25h-0.59c-0.222,0-0.461-0.024-0.682-0.068  C14.62,8.852,13.58,7.56,13.58,6.04V4.929C13.58,4.417,13.997,4,14.509,4h2.871C18.825,4,20,5.176,20,6.63  C20,8.074,18.825,9.25,17.38,9.25z"/><path d="M9.46,14.75c-0.276,0-0.5,0.224-0.5,0.5V18c0,0.276,0.224,0.5,0.5,0.5s0.5-0.224,0.5-0.5v-2.75  C9.96,14.974,9.736,14.75,9.46,14.75z"/><path d="M14.54,14.75c-0.276,0-0.5,0.224-0.5,0.5V18c0,0.276,0.224,0.5,0.5,0.5s0.5-0.224,0.5-0.5v-2.75  C15.04,14.974,14.816,14.75,14.54,14.75z"/></svg>